inDegrees=no
num_controls=7
num_derivatives=13
num_iterations=109
num_multipliers=7
num_parameters=0
num_slacks=7
num_states=26
objective=0.477359
objective_accelerations=0.042663
objective_balance=0.003622
objective_effort=0.039669
objective_height=0.385713
objective_ligament=0.005693
solver_duration=1492.037913
status=Solve_Succeeded
success=true
DataType=double
version=3
OpenSimVersion=4.5
endheader
time	/jointset/ground_pelvis/pelvis_tilt/value	/jointset/ground_pelvis/pelvis_tx/value	/jointset/ground_pelvis/pelvis_ty/value	/jointset/hip_l/hip_flexion_l/value	/jointset/hip_l/hip_adduction_l/value	/jointset/hip_l/hip_rotation_l/value	/jointset/back/lumbar_extension/value	/jointset/patellofemoral_l/patellar_flexion_l/value	/jointset/knee_l/knee_flexion_l/value	/jointset/knee_l/knee_adduction_l/value	/jointset/knee_l/knee_rotation_l/value	/jointset/ankle_l/ankle_angle_l/value	/jointset/subtalar_l/subtalar_angle_l/value	/jointset/ground_pelvis/pelvis_tilt/speed	/jointset/ground_pelvis/pelvis_tx/speed	/jointset/ground_pelvis/pelvis_ty/speed	/jointset/hip_l/hip_flexion_l/speed	/jointset/hip_l/hip_adduction_l/speed	/jointset/hip_l/hip_rotation_l/speed	/jointset/back/lumbar_extension/speed	/jointset/patellofemoral_l/patellar_flexion_l/speed	/jointset/knee_l/knee_flexion_l/speed	/jointset/knee_l/knee_adduction_l/speed	/jointset/knee_l/knee_rotation_l/speed	/jointset/ankle_l/ankle_angle_l/speed	/jointset/subtalar_l/subtalar_angle_l/speed	/forceset/tau_hip_flexion_l	/forceset/tau_hip_adduction_l	/forceset/tau_hip_rotation_l	/forceset/tau_knee_flexion_l	/forceset/tau_ankle_angle_l	/forceset/tau_subtalar_angle_l	/forceset/tau_lumbar_extension	lambda_cid13_p0	lambda_cid13_p1	lambda_cid13_p2	lambda_cid13_p3	lambda_cid13_p4	lambda_cid13_p5	lambda_cid14_p0	/jointset/ground_pelvis/pelvis_tilt/accel	/jointset/ground_pelvis/pelvis_tx/accel	/jointset/ground_pelvis/pelvis_ty/accel	/jointset/hip_l/hip_flexion_l/accel	/jointset/hip_l/hip_adduction_l/accel	/jointset/hip_l/hip_rotation_l/accel	/jointset/back/lumbar_extension/accel	/jointset/patellofemoral_l/patellar_flexion_l/accel	/jointset/knee_l/knee_flexion_l/accel	/jointset/knee_l/knee_adduction_l/accel	/jointset/knee_l/knee_rotation_l/accel	/jointset/ankle_l/ankle_angle_l/accel	/jointset/subtalar_l/subtalar_angle_l/accel	gamma_cid13_p0	gamma_cid13_p1	gamma_cid13_p2	gamma_cid13_p3	gamma_cid13_p4	gamma_cid13_p5	gamma_cid14_p0
0	-0.03676134201372204	0.0566506743642076	0.9203426814461322	0.3085816938045678	-0.2956226844045862	-0.301216184842888	-0.3879492264334186	0.2499269421184881	0.2499269421184919	-0.1745327411489202	-0.1741490502092395	-0.0008036623358878681	0.0004510250279314202	0	0	0	0	0	0	0	0	0	0	0	0	0	0.07970859215784405	-0.04055528829923158	-0.02112153296181029	-0.252118701109819	0.2028576603337494	-0.02670443332485968	-0.00389288382655447	21.2983450591541	5.288563198535534	1.64951584176277	9.274144667981007	-620.3794824030613	-64.72714147897575	-23.18388320530924	-1.005746973830914	-2.090895074318362	-0.925785598969209	9.28329259735329	-0.8618632580744587	3.253948147104306	-7.638835053722874	9.277349361024424	9.277349361024347	1.192410175788768	-0.1249535923264667	1.488912563210537	-0.4181037359203382	1.29543273747729e-08	1.419831198058462e-07	7.585013917094944e-08	-3.367379724868006e-08	1.936120540344788e-07	9.086502609051901e-09	-6.442594473609909e-10
0.01	-0.03680734130746642	0.05654916962908541	0.9202976640325099	0.3090315787439851	-0.2956656832937047	-0.3010529190798437	-0.3883256008062479	0.2503813320983556	0.2503813320983675	-0.1744762907350869	-0.1741517248164109	-0.000729079180444585	0.0004302576600556409	-0.009095591715512634	-0.02001545565552497	-0.008941839470662365	0.08924294996345471	-0.008532596244522499	0.03249113601961524	-0.0743708075656727	0.09043781281414418	0.09043781281414154	0.01127390019389078	-0.0005132891503798579	0.0151083296397667	-0.004016183672495985	0.07144037483685156	-0.04818822580818709	-0.02036556358134389	-0.2477504727903524	0.1986778619285162	-0.01540444813001404	0.004760552138973931	20.23028921603571	0.6459763390843166	2.300590156912882	6.532826368579411	-624.9283331326236	-73.64124613109593	-23.18923151048878	-0.845835983056595	-1.914053840352736	-0.8690979106356361	8.634683679773493	-0.8389145977156267	3.222389211421406	-7.200593558181237	8.860969896118281	8.860969896117545	1.09248379394249	-0.01126317759842348	1.550553495016119	-0.3728140381288897	-2.454278529539443e-08	1.48523911730518e-07	1.257948650271186e-07	1.313217044920098e-08	2.220408164827911e-08	-3.265405670162624e-08	-4.366338161969802e-09
0.02	-0.03694117066088906	0.05625607373157138	0.9201650852662768	0.3103518706798312	-0.2957919995032854	-0.3005696033802012	-0.3894185612447703	0.2517268947372918	0.2517268947372921	-0.174307580548748	-0.1741588816352947	-0.0004976606624728123	0.0003734407844119718	-0.01756601193687511	-0.03831823247836583	-0.01751227052211125	0.1740813992841689	-0.01666346409203359	0.06400998732048997	-0.1433172131390301	0.1782345318086452	0.1782345318086274	0.02245195449791692	-0.0008964423489468091	0.03136707250579143	-0.007209901553576775	0.06317215751593375	-0.05582116331711708	-0.01960959420107356	-0.243382244470787	0.1944980635233216	-0.004104462935126464	0.01341398810452216	19.23378480759551	-4.007747325459957	2.951850971179925	3.679851539272482	-628.4086908367652	-82.46647351216529	-23.20489494118677	-0.880712675000996	-1.748359307781457	-0.8515039151265142	8.402392468805179	-0.7815175786721942	3.059491203356218	-6.553954655259889	8.749130597095778	8.749130597093197	1.1732409978158	-0.09892640196386809	1.718995208462229	-0.2536105776372874	-6.203989796556178e-08	1.550647036551898e-07	1.757395908832878e-07	5.993813814708202e-08	-1.492038907379206e-07	-7.439461601230438e-08	-8.088416876578611e-09
0.03	-0.03715753529188658	0.05578617735288809	0.9199480224695737	0.312502934340162	-0.295997996499239	-0.2997761530144548	-0.3911796398205195	0.2539378466996484	0.2539378466996483	-0.1740284453595165	-0.1741698389994628	-0.0001011249534458864	0.0002872817486680955	-0.0256732778802793	-0.05560813675544706	-0.02589725300253566	0.2557953377146693	-0.02451435131162323	0.09454820066601814	-0.2085982420912627	0.2635543119824313	0.263554311982406	0.03324582197168144	-0.001284793939094787	0.04780406432124723	-0.01004656739784162	0.05768862137049417	-0.04900800060116841	-0.01881918517105549	-0.2378173536056511	0.1885456237554006	-0.006739213842382201	0.01787646562669289	17.19373339731646	-2.595996269405986	2.829260369734865	4.862767338076231	-629.0634649534576	-78.79528597013724	-23.23015127418585	-0.7706929502959271	-1.711357835300791	-0.8315705754429045	8.005486615856546	-0.783682261884031	3.031184141380933	-6.470138027458405	8.363171058235228	8.363171058235549	1.013114128114302	-0.007228656502741994	1.58564990732414	-0.3024381503260957	-8.68715741833167e-08	9.549661461875691e-08	2.725699261057707e-07	6.945668220954996e-08	-2.261436955442768e-07	-1.432373170206642e-07	-2.625712203546597e-08
0.04	-0.03745396446156744	0.05514497156190832	0.9196471948158782	0.3154610558019328	-0.2962818639610454	-0.2986812809670052	-0.3935845208882406	0.2569899503298804	0.2569899503298738	-0.173645240594351	-0.1741843677033284	0.0004557004215833878	0.0001720073419806377	-0.03357891967513379	-0.07258011493766267	-0.03426524192061744	0.335492959572535	-0.03223755726247771	0.1242943236607414	-0.2720777115336471	0.3464648653848249	0.3464648653847992	0.04326586968374459	-0.001610710287738414	0.06342500570617933	-0.01303297574230762	0.0522050852249901	-0.04219483788522899	-0.01802877614101171	-0.2322524627405635	0.1825931839874608	-0.009373964749654204	0.02233894314883271	15.22021282729275	-1.192298099029787	2.703846106601463	5.932671783391575	-628.7393246567581	-75.03743912118676	-23.26418947000118	-0.8403878452911628	-1.68477408880826	-0.8481052026579863	7.999129154278208	-0.7559813249251653	2.901073133195262	-6.193642753290332	8.267285242817245	8.267285242816108	1.018477045475511	-0.08643935366297645	1.555785122357562	-0.2835590776775005	-1.114421073814343e-07	3.456545587178577e-08	3.703669749234355e-07	7.820641341355578e-08	-3.011357030809455e-07	-2.126388250743372e-07	-4.472369578083331e-08
0.05	-0.03782815127056509	0.0543365331080732	0.9192628119525051	0.3192047844100081	-0.2966414878346513	-0.2972939264419701	-0.3966124024862868	0.2608590541606993	0.2608590541607082	-0.1731641584273849	-0.1742023614550738	0.001165993212363549	2.745286503799228e-05	-0.04117135490752802	-0.08896521553900807	-0.0426000932861605	0.4127573166025986	-0.0395829822837938	0.1530063804843257	-0.3329482947597953	0.4269358000707673	0.4269358000707554	0.05296709920434688	-0.001963962780234261	0.07863232552206598	-0.01577069470984248	0.04380213022965982	-0.03947395640019078	-0.01694290084993902	-0.2254585948570576	0.1748196320468395	-0.006698588317532918	0.02967686404135475	12.81293723158764	-1.977444233298032	2.880108281254005	6.108907518605323	-629.8897407830358	-75.58562710936786	-23.3059793341755	-0.7056137914531244	-1.594008290077994	-0.8245503164618244	7.515759937704125	-0.7082386894834264	2.830685265871157	-5.951219110093118	7.873991569160496	7.87399156916333	0.9484674803726698	-0.006092330303273816	1.503017436871527	-0.2528421738825459	-1.226698898291272e-07	4.196861086204433e-08	3.823324631431522e-07	9.643043143191119e-08	-3.652448060845345e-07	-2.189596894225978e-07	-4.405366241967576e-08
0.06	-0.03827565091772662	0.05336851759936884	0.9187954055328849	0.3237062907804489	-0.2970714490782179	-0.2956245686869093	-0.4002324805171553	0.2655202661359133	0.2655202661359146	-0.1725855596501873	-0.1742231525583889	0.002028321606437041	-0.0001412715750981511	-0.04824148730951003	-0.1044955259115121	-0.05086995317004316	0.4870485120460222	-0.04630503125503439	0.1806949696651574	-0.3905169980985979	0.5048864942638185	0.5048864942638278	0.06276919172574236	-0.002170180603142738	0.09383212636464472	-0.01786696838102329	0.03539917523423464	-0.03675307491521486	-0.01585702555886632	-0.2186647269736241	0.1670460801061717	-0.004023211885491709	0.03701478493385377	10.46514195566633	-2.770890330201574	3.055278710028225	6.175837054143841	-630.1631646637637	-76.05835447066924	-23.35427092201942	-0.7359272792088125	-1.513816043039921	-0.8351069063259032	7.404496836950202	-0.631306114910072	2.696379604644787	-5.533266775821271	7.763237144238989	7.763237144239322	1.038649645634132	-0.05703241974548064	1.554281327696043	-0.1552700184066739	-1.333358722452232e-07	5.224900011492312e-08	3.906839909166395e-07	1.150533667898181e-07	-4.288956815288358e-07	-2.226245266674727e-07	-4.257787718034874e-08
0.07000000000000001	-0.03879202029816103	0.0522491643607764	0.9182453210346662	0.3289374433906175	-0.2975659601419405	-0.2936834032772849	-0.404412911907701	0.2709490758485802	0.2709490758485732	-0.1719093029560137	-0.1742456434560832	0.003042219079404904	-0.000328354836378701	-0.05498903523234209	-0.119261335850317	-0.05915944715675673	0.5587733057019246	-0.05254492873363553	0.207383359177254	-0.4451722045139582	0.5804730771632245	0.5804730771632368	0.07238086863291752	-0.002318436929633792	0.1088883653884464	-0.01951692377215916	0.0292993533655934	-0.03470724529567989	-0.01513455504342154	-0.2151860943606188	0.1629965179472244	-0.002654453585317474	0.04234812870269167	9.274392383708676	-3.173230265380256	3.13813233001471	6.01220615631437	-629.9356480379607	-75.95706172177907	-23.4076375353559	-0.6376678839656424	-1.440872339238582	-0.8278322979661065	6.995152974784133	-0.612547645267921	2.631797493915047	-5.372086250029042	7.396021694418042	7.396021694418272	0.9072804966759206	0.007778873924739478	1.472439517897242	-0.1649966811916936	-1.43263424854006e-07	-1.377785805509945e-08	4.248128019799548e-07	1.182196018759146e-07	-4.746007209855496e-07	-2.56128900237823e-07	-5.266248985123719e-08
0.08	-0.03937456502484897	0.05098557124880839	0.9176119492659561	0.3348735804063226	-0.2981213133966394	-0.2914800081986564	-0.409127983097528	0.2771216819565704	0.2771216819565648	-0.1711399587361005	-0.1742693166944338	0.004204907808245576	-0.0005309653279155153	-0.06147655656101962	-0.1333435005866241	-0.06752740726833605	0.6280453931527652	-0.05847346944956391	0.2331409034662739	-0.4974449579547556	0.6536457733276972	0.6536457733277126	0.08138669687676937	-0.002406648735096524	0.1235903775392505	-0.02097241443227801	0.02319953149699748	-0.03266141567609351	-0.01441208452801756	-0.2117074617475541	0.1589469557883166	-0.001285695285076163	0.04768147247151985	8.136351658423131	-3.582547938861411	3.219527129304617	5.746854797441022	-628.9354820347969	-75.78725417323155	-23.46462712733638	-0.6839219603780016	-1.377087002540305	-0.8508001312990532	6.913955595937828	-0.569034762375517	2.510210560029478	-5.056776180908749	7.28045979725232	7.280459797252658	0.9174799129694534	-0.04502351553978182	1.483435953096572	-0.1163770722032535	-1.531433368300589e-07	-8.472776444595429e-08	4.606046635780975e-07	1.203886304928619e-07	-5.191479645720962e-07	-2.915584051840104e-07	-6.349293464536536e-08
0.09	-0.04002085618533185	0.04958479717565845	0.9168944412172557	0.3414902293426156	-0.298734218613861	-0.2890241789376211	-0.4143528970413977	0.2840141015170117	0.2840141015170092	-0.1702832478705157	-0.1742940032458833	0.005513168147052292	-0.0007468618706685117	-0.06772686513182415	-0.1466743948399576	-0.07598794994278768	0.6948320348190077	-0.06403886867176321	0.2578683625516514	-0.5470750368458146	0.7244198026441363	0.7244198026441375	0.08987258027526819	-0.002509289629426734	0.1380274048242131	-0.02214878188383838	0.01607746014594529	-0.03028328262128866	-0.01361827406045335	-0.2080541193684677	0.1547988080240902	0.0002108835922671095	0.0539823319450552	6.931146164266442	-4.034988479600822	3.307077546915099	5.35364338052129	-628.6861638362311	-75.61267988685496	-23.52366780068429	-0.5873636310992066	-1.290528643300266	-0.8458480057237422	6.493153410228711	-0.5400275908353109	2.430448736825094	-4.846704647321259	6.913136954959758	6.913136954957449	0.801735396272409	0.01040589738362148	1.418684836400256	-0.1095878404820964	-1.595917296515203e-07	-1.277911002779897e-07	4.806559669676585e-07	1.232153875889662e-07	-5.460322862462892e-07	-3.112045629880072e-07	-6.967381297698699e-08
